0
SECTION
2
HEADER
9
$INSUNITS
70
4
9
$ACADVER
1
AC1014
9
$HANDSEED
5
FFFF
0
ENDSEC
0
SECTION
2
TABLES
0
TABLE
2
VPORT
5
8
100
AcDbSymbolTable
0
ENDTAB
0
TABLE
2
LTYPE
5
5
100
AcDbSymbolTable
0
LTYPE
5
14
100
AcDbSymbolTableRecord
100
AcDbLinetypeTableRecord
2
BYBLOCK
70
0
0
LTYPE
5
15
100
AcDbSymbolTableRecord
100
AcDbLinetypeTableRecord
2
BYLAYER
70
0
0
ENDTAB
0
TABLE
2
LAYER
5
2
100
AcDbSymbolTable
70
2
0
LAYER
5
50
100
AcDbSymbolTableRecord
100
AcDbLayerTableRecord
2
0
70
0
6
CONTINUOUS
0
ENDTAB
0
TABLE
2
STYLE
5
3
100
AcDbSymbolTable
70
1
0
STYLE
5
11
100
AcDbSymbolTableRecord
100
AcDbTextStyleTableRecord
2
STANDARD
70
0
0
ENDTAB
0
TABLE
2
VIEW
5
6
100
AcDbSymbolTable
70
0
0
ENDTAB
0
TABLE
2
UCS
5
7
100
AcDbSymbolTable
70
0
0
ENDTAB
0
TABLE
2
APPID
5
9
100
AcDbSymbolTable
70
2
0
APPID
5
12
100
AcDbSymbolTableRecord
100
AcDbRegAppTableRecord
2
ACAD
70
0
0
ENDTAB
0
TABLE
2
DIMSTYLE
5
A
100
AcDbSymbolTable
70
1
0
ENDTAB
0
TABLE
2
BLOCK_RECORD
5
1
100
AcDbSymbolTable
70
1
0
BLOCK_RECORD
5
1F
100
AcDbSymbolTableRecord
100
AcDbBlockTableRecord
2
*MODEL_SPACE
0
BLOCK_RECORD
5
1B
100
AcDbSymbolTableRecord
100
AcDbBlockTableRecord
2
*PAPER_SPACE
0
ENDTAB
0
ENDSEC
0
SECTION
2
BLOCKS
0
BLOCK
5
20
100
AcDbEntity
100
AcDbBlockBegin
2
*MODEL_SPACE
0
ENDBLK
5
21
100
AcDbEntity
100
AcDbBlockEnd
0
BLOCK
5
1C
100
AcDbEntity
100
AcDbBlockBegin
2
*PAPER_SPACE
0
ENDBLK
5
1D
100
AcDbEntity
100
AcDbBlockEnd
0
ENDSEC
0
SECTION
2
ENTITIES
0
LWPOLYLINE
5
100
100
AcDbEntity
8
0
100
AcDbPolyline
90
16
70
1
43
0.0
10
19.000002900907752
20
122.0000008218363
10
5.0000028148034046
20
122.00002043284634
42
0.41421399656889246
10
2.9999957375780051
20
120.00001599390512
10
2.9999957375827901
20
94.500000792032665
10
1.636784694198836e-07
20
94.500000792032665
10
1.6362739401120451e-07
20
182.00708859380316
42
-1.0000022011162897
10
24.000000163670336
20
182.00713981462386
10
24.000000163549394
20
12.007139874859901
42
-1.0005930136815087
10
1.636770167371359e-07
20
12.007088593642409
10
1.6367834615136315e-07
20
87.500000792032665
10
2.9999957375827901
20
87.500000792032665
10
3.0000000467684886
20
69.500000792032665
42
0.41421356237309492
10
5.0000000765780257
20
67.500000762223124
10
19.00000009933898
20
67.500000762223124
42
0.41421356237309537
10
21.000000129141302
20
69.500000792025446
10
21.000000129141956
20
120.00000079202545
42
0.41421315209231002
0
LWPOLYLINE
5
101
100
AcDbEntity
8
0
100
AcDbPolyline
90
6
70
1
43
0.0
10
8.9000001635842043
20
182.00714061757617
10
10.450000163573891
20
179.32246186585004
10
13.550000163569567
20
179.32246186585382
10
15.100000163564127
20
182.00714061758367
10
13.55000016356302
20
184.6918193693098
10
10.450000163569644
20
184.69181936930204
0
LINE
5
102
100
AcDbEntity
8
0
100
AcDbLine
10
4.9999999021473469
20
170.99999490046798
30
0
11
4.9999999021473451
21
172.99999490049348
31
0
0
LWPOLYLINE
5
103
100
AcDbEntity
8
0
100
AcDbPolyline
90
6
70
1
43
0.0
10
13.550000178903348
20
9.315321427133803
10
15.100000178813925
20
12.000000178917178
10
13.550000178724513
20
14.684678930597308
10
10.450000178724521
20
14.684678930597315
10
8.9000001787543326
20
12.000000178710691
10
10.450000178903348
20
9.3153214270305558
0
LWPOLYLINE
5
104
100
AcDbEntity
8
0
100
AcDbPolyline
90
8
70
1
43
0.0
10
19.000001152174828
20
58.999999386804902
10
5.0000009435748911
20
59.000000762223188
42
0.4142135911481557
10
3.0000001636771794
20
57.000000178813941
10
3.0000001636771794
20
22.000000178813941
42
0.4142135623730947
10
5.0000001636771909
20
20.000000178813934
10
19.000000163677193
20
20.000000178813956
42
0.41421356237303097
10
21.000000163676763
20
22.000000178813956
10
21.00000016367677
20
57.000000178813963
42
0.41421353359467938
0
LINE
5
105
100
AcDbEntity
8
0
100
AcDbLine
10
4.9999999021473469
20
170.99999490046798
30
0
11
2.9999999021217749
21
170.99999490046793
31
0
0
LINE
5
106
100
AcDbEntity
8
0
100
AcDbLine
10
13.550000178903348
20
9.315321427133803
30
0
11
10.813600228182757
21
9.3153214271338012
31
0
0
LWPOLYLINE
5
107
100
AcDbEntity
8
0
100
AcDbPolyline
90
6
70
1
43
0.0
10
10.450000180120318
20
132.69181936931051
10
8.9000001801227455
20
130.00714061757694
10
10.45000018012553
20
127.32246186584635
10
13.550000180125895
20
127.32246186584936
10
15.100000180131318
20
130.00714061758293
10
13.55000018012076
20
132.69181936931363
0
LWPOLYLINE
5
108
100
AcDbEntity
8
0
100
AcDbPolyline
90
6
70
1
43
0.0
10
10.450000180829919
20
66.684678930545005
10
8.9000001808311318
20
64.000000178812542
10
10.450000180832328
20
61.315321427081471
10
13.550000180832328
20
61.315321427082871
10
15.10000018083112
20
64.000000178815327
10
13.550000180829244
20
66.684678930546397
0
ENDSEC
0
SECTION
2
OBJECTS
0
DICTIONARY
5
C
100
AcDbDictionary
3
ACAD_GROUP
350
D
3
ACAD_MLINESTYLE
350
17
0
DICTIONARY
5
D
100
AcDbDictionary
0
DICTIONARY
5
1A
330
C
100
AcDbDictionary
0
DICTIONARY
5
17
100
AcDbDictionary
0
ENDSEC
0
EOF
