0
SECTION
2
HEADER
9
$INSUNITS
70
4
9
$ACADVER
1
AC1014
9
$HANDSEED
5
FFFF
0
ENDSEC
0
SECTION
2
TABLES
0
TABLE
2
VPORT
5
8
100
AcDbSymbolTable
0
ENDTAB
0
TABLE
2
LTYPE
5
5
100
AcDbSymbolTable
0
LTYPE
5
14
100
AcDbSymbolTableRecord
100
AcDbLinetypeTableRecord
2
BYBLOCK
70
0
0
LTYPE
5
15
100
AcDbSymbolTableRecord
100
AcDbLinetypeTableRecord
2
BYLAYER
70
0
0
ENDTAB
0
TABLE
2
LAYER
5
2
100
AcDbSymbolTable
70
2
0
LAYER
5
50
100
AcDbSymbolTableRecord
100
AcDbLayerTableRecord
2
0
70
0
6
CONTINUOUS
0
ENDTAB
0
TABLE
2
STYLE
5
3
100
AcDbSymbolTable
70
1
0
STYLE
5
11
100
AcDbSymbolTableRecord
100
AcDbTextStyleTableRecord
2
STANDARD
70
0
0
ENDTAB
0
TABLE
2
VIEW
5
6
100
AcDbSymbolTable
70
0
0
ENDTAB
0
TABLE
2
UCS
5
7
100
AcDbSymbolTable
70
0
0
ENDTAB
0
TABLE
2
APPID
5
9
100
AcDbSymbolTable
70
2
0
APPID
5
12
100
AcDbSymbolTableRecord
100
AcDbRegAppTableRecord
2
ACAD
70
0
0
ENDTAB
0
TABLE
2
DIMSTYLE
5
A
100
AcDbSymbolTable
70
1
0
ENDTAB
0
TABLE
2
BLOCK_RECORD
5
1
100
AcDbSymbolTable
70
1
0
BLOCK_RECORD
5
1F
100
AcDbSymbolTableRecord
100
AcDbBlockTableRecord
2
*MODEL_SPACE
0
BLOCK_RECORD
5
1B
100
AcDbSymbolTableRecord
100
AcDbBlockTableRecord
2
*PAPER_SPACE
0
ENDTAB
0
ENDSEC
0
SECTION
2
BLOCKS
0
BLOCK
5
20
100
AcDbEntity
100
AcDbBlockBegin
2
*MODEL_SPACE
0
ENDBLK
5
21
100
AcDbEntity
100
AcDbBlockEnd
0
BLOCK
5
1C
100
AcDbEntity
100
AcDbBlockBegin
2
*PAPER_SPACE
0
ENDBLK
5
1D
100
AcDbEntity
100
AcDbBlockEnd
0
ENDSEC
0
SECTION
2
ENTITIES
0
LINE
5
100
100
AcDbEntity
8
0
100
AcDbLine
10
2.9999999008165252
20
137.00713970345879
30
0
11
3.0000000352715475
21
171.00713970345143
31
0
0
LWPOLYLINE
5
101
100
AcDbEntity
8
0
100
AcDbPolyline
90
4
70
1
43
0.0
10
1.6412067157310926e-07
20
12.00708942488993
10
1.6417703204158711e-07
20
182.00708942509129
42
-1.0000020841148218
10
24.000000164090473
20
182.00713898676628
10
24.000000164159697
20
12.007138928697721
42
-1.0005930088905552
0
LWPOLYLINE
5
102
100
AcDbEntity
8
0
100
AcDbPolyline
90
8
70
1
43
0.0
10
21.000000170681297
20
69.500000792025375
10
21.000000170677247
20
120.00000079202538
42
0.41421356237309503
10
19.00000014086525
20
122.00000082183421
10
5.000004178102242
20
122.00000082183421
42
0.41421356237309503
10
2.9999999024662665
20
119.99999654619417
10
2.999999902449733
20
69.50000079203258
42
0.41421356237113294
10
4.9999999322458732
20
67.500000762223053
10
19.00000014085396
20
67.500000762223053
42
0.41421356237675716
0
LWPOLYLINE
5
103
100
AcDbEntity
8
0
100
AcDbPolyline
90
8
70
1
43
0.0
10
21.000000164072038
20
22.000000178813934
10
21.000000164083712
20
57.000000178813941
42
0.41421356165791307
10
19.000000960990871
20
59.000000727893067
10
5.0000007523908696
20
59.000000762223088
42
0.41421356308923329
10
3.0000001640774081
20
57.00000017881392
10
3.0000001640774081
20
22.000000178813927
42
0.41421356237265183
10
5.0000001640774041
20
20.000000178813934
10
19.000000164077406
20
20.000000178813934
42
0.41421356237230778
0
CIRCLE
5
104
100
AcDbEntity
8
0
100
AcDbCircle
10
12.000000178813934
20
12.000000178813934
30
0
40
1.4999999999999991
210
0
220
0
230
1
0
LINE
5
105
100
AcDbEntity
8
0
100
AcDbLine
10
20.999999585167615
20
137.00713969555781
30
0
11
20.999999585172382
21
171.00713944278641
31
0
0
ARC
5
106
100
AcDbEntity
8
0
100
AcDbCircle
10
19.000000292965641
20
171.00713944278641
30
0
40
1.9999992922067422
210
-0
220
0
230
1
100
AcDbArc
50
0
51
89.999996068794047
0
LINE
5
107
100
AcDbEntity
8
0
100
AcDbLine
10
5.000000035290598
20
173.00713969556799
30
0
11
19.000000430190568
21
173.00713873499316
31
0
0
CIRCLE
5
108
100
AcDbEntity
8
0
100
AcDbCircle
10
12.000000164082108
20
182.0071392152806
30
0
40
1.4999999999999991
210
0
220
0
230
1
0
LWPOLYLINE
5
109
100
AcDbEntity
8
0
100
AcDbPolyline
90
3
70
1
43
0.0
10
5.000000035290598
20
173.00713969556799
42
0.41421356121394598
10
3.0000000352715475
20
171.00713970345143
10
5.0000000352967477
20
171.00713969554243
0
ARC
5
110
100
AcDbEntity
8
0
100
AcDbCircle
10
5.000000076325037
20
137.00713969554252
30
0
40
2.0000001755085122
210
0
220
0
230
1
100
AcDbArc
50
180
51
270.00000358210639
0
ARC
5
111
100
AcDbEntity
8
0
100
AcDbCircle
10
19.000000284923939
20
137.0071396955579
30
0
40
1.9999993002418077
210
-0
220
0
230
1
100
AcDbArc
50
270.00000358210639
51
360
0
LINE
5
112
100
AcDbEntity
8
0
100
AcDbLine
10
19.000000409962997
20
135.00714039531607
30
0
11
5.0000002013641502
21
135.00713952004239
31
0
0
LWPOLYLINE
5
113
100
AcDbEntity
8
0
100
AcDbPolyline
90
6
70
1
43
0.0
10
10.450000178813932
20
14.684678930545697
10
8.9000001788139294
20
12.000000178813934
10
10.450000178813932
20
9.3153214270821714
10
13.550000178813937
20
9.3153214270821714
10
15.100000178813939
20
12.000000178813934
10
13.550000178813937
20
14.684678930545697
0
LINE
5
114
100
AcDbEntity
8
0
100
AcDbLine
10
10.450000178813932
20
14.684678930545697
30
0
11
13.550000178813937
21
14.684678930545697
31
0
0
LWPOLYLINE
5
115
100
AcDbEntity
8
0
100
AcDbPolyline
90
6
70
1
43
0.0
10
10.45000016407683
20
184.69181796701147
10
8.9000001640816162
20
182.00713921528094
10
10.450000164076211
20
179.32246046355004
10
13.550000164075001
20
179.3224604635497
10
15.100000164068062
20
182.00713921528023
10
13.55000016407562
20
184.69181796701116
0
LINE
5
116
100
AcDbEntity
8
0
100
AcDbLine
10
10.450000180629422
20
132.69181796701235
30
0
11
13.550000180629427
21
132.69181796701235
31
0
0
CIRCLE
5
117
100
AcDbEntity
8
0
100
AcDbCircle
10
12.000000181320676
20
64.000000178813934
30
0
40
1.4999999999999991
210
0
220
0
230
1
0
CIRCLE
5
118
100
AcDbEntity
8
0
100
AcDbCircle
10
12.000000180629424
20
130.0071392152806
30
0
40
1.4999999999999993
210
0
220
0
230
1
0
ENDSEC
0
SECTION
2
OBJECTS
0
DICTIONARY
5
C
100
AcDbDictionary
3
ACAD_GROUP
350
D
3
ACAD_MLINESTYLE
350
17
0
DICTIONARY
5
D
100
AcDbDictionary
0
DICTIONARY
5
1A
330
C
100
AcDbDictionary
0
DICTIONARY
5
17
100
AcDbDictionary
0
ENDSEC
0
EOF
