0
SECTION
2
HEADER
9
$INSUNITS
70
4
9
$ACADVER
1
AC1014
9
$HANDSEED
5
FFFF
0
ENDSEC
0
SECTION
2
TABLES
0
TABLE
2
VPORT
5
8
100
AcDbSymbolTable
0
ENDTAB
0
TABLE
2
LTYPE
5
5
100
AcDbSymbolTable
0
LTYPE
5
14
100
AcDbSymbolTableRecord
100
AcDbLinetypeTableRecord
2
BYBLOCK
70
0
0
LTYPE
5
15
100
AcDbSymbolTableRecord
100
AcDbLinetypeTableRecord
2
BYLAYER
70
0
0
ENDTAB
0
TABLE
2
LAYER
5
2
100
AcDbSymbolTable
70
2
0
LAYER
5
50
100
AcDbSymbolTableRecord
100
AcDbLayerTableRecord
2
0
70
0
6
CONTINUOUS
0
ENDTAB
0
TABLE
2
STYLE
5
3
100
AcDbSymbolTable
70
1
0
STYLE
5
11
100
AcDbSymbolTableRecord
100
AcDbTextStyleTableRecord
2
STANDARD
70
0
0
ENDTAB
0
TABLE
2
VIEW
5
6
100
AcDbSymbolTable
70
0
0
ENDTAB
0
TABLE
2
UCS
5
7
100
AcDbSymbolTable
70
0
0
ENDTAB
0
TABLE
2
APPID
5
9
100
AcDbSymbolTable
70
2
0
APPID
5
12
100
AcDbSymbolTableRecord
100
AcDbRegAppTableRecord
2
ACAD
70
0
0
ENDTAB
0
TABLE
2
DIMSTYLE
5
A
100
AcDbSymbolTable
70
1
0
ENDTAB
0
TABLE
2
BLOCK_RECORD
5
1
100
AcDbSymbolTable
70
1
0
BLOCK_RECORD
5
1F
100
AcDbSymbolTableRecord
100
AcDbBlockTableRecord
2
*MODEL_SPACE
0
BLOCK_RECORD
5
1B
100
AcDbSymbolTableRecord
100
AcDbBlockTableRecord
2
*PAPER_SPACE
0
ENDTAB
0
ENDSEC
0
SECTION
2
BLOCKS
0
BLOCK
5
20
100
AcDbEntity
100
AcDbBlockBegin
2
*MODEL_SPACE
0
ENDBLK
5
21
100
AcDbEntity
100
AcDbBlockEnd
0
BLOCK
5
1C
100
AcDbEntity
100
AcDbBlockBegin
2
*PAPER_SPACE
0
ENDBLK
5
1D
100
AcDbEntity
100
AcDbBlockEnd
0
ENDSEC
0
SECTION
2
ENTITIES
0
LWPOLYLINE
5
100
100
AcDbEntity
8
0
100
AcDbPolyline
90
4
70
1
43
0.0
10
1.6164891647463264e-07
20
12.007085254071592
42
1.0005930118305759
10
24.000000161649954
20
12.007143170033512
10
24.000000161648927
20
182.00714317003349
42
0.99999820118394922
10
1.6164891536440962e-07
20
182.00708525407163
0
CIRCLE
5
101
100
AcDbEntity
8
0
100
AcDbCircle
10
12.000000161701529
20
182.00709262593193
30
0
40
1.4999999999999991
210
0
220
0
230
1
0
CIRCLE
5
102
100
AcDbEntity
8
0
100
AcDbCircle
10
12.000000178813934
20
12.000000178813934
30
0
40
1.4999999999999991
210
0
220
0
230
1
0
LWPOLYLINE
5
103
100
AcDbEntity
8
0
100
AcDbPolyline
90
8
70
1
43
0.0
10
3.0000001616489196
20
22.000000178813927
42
0.41421356237309503
10
5.0000001616489156
20
20.000000178813934
10
19.000000161648916
20
20.000000178813934
42
0.4142135623730957
10
21.00000016164892
20
22.000000178813934
10
21.000000161649965
20
57.000000178813934
42
0.41421356165457418
10
19.000000283152033
20
59.000000727899248
10
5.0000000745499555
20
59.00000076222927
42
0.41421346417842009
10
3.0000001616489196
20
57.000000178813927
0
CIRCLE
5
104
100
AcDbEntity
8
0
100
AcDbCircle
10
12.000000178849955
20
64.000000178813934
30
0
40
1.4999999999999991
210
0
220
0
230
1
0
ARC
5
105
100
AcDbEntity
8
0
100
AcDbCircle
10
5.0000000745499555
20
69.500000792031599
30
0
40
2.0000000298023224
210
0
220
0
230
1
100
AcDbArc
50
180
51
270
0
ARC
5
106
100
AcDbEntity
8
0
100
AcDbCircle
10
19.000000283149955
20
69.500000792031599
30
0
40
2.0000000298023224
210
-0
220
0
230
1
100
AcDbArc
50
-90
51
0
0
LINE
5
107
100
AcDbEntity
8
0
100
AcDbLine
10
19.000000283149955
20
67.500000762229277
30
0
11
5.0000000745499555
21
67.500000762229277
31
0
0
LINE
5
108
100
AcDbEntity
8
0
100
AcDbLine
10
21.000000312952277
20
69.500000792031599
30
0
11
21.000000312952277
21
126.00000079203159
31
0
0
LINE
5
109
100
AcDbEntity
8
0
100
AcDbLine
10
3.0000000447476327
20
69.500000792031599
30
0
11
3.0000000447419573
21
126.00000079203159
31
0
0
LINE
5
110
100
AcDbEntity
8
0
100
AcDbLine
10
3.0000000447419573
20
126.00000079203159
30
0
11
5.0000000745419566
21
126.00000079202542
31
0
0
LINE
5
111
100
AcDbEntity
8
0
100
AcDbLine
10
21.000000312952277
20
126.00000079203159
30
0
11
19.000000283152275
21
126.00000079203159
31
0
0
LWPOLYLINE
5
112
100
AcDbEntity
8
0
100
AcDbPolyline
90
3
70
1
43
0.0
10
5.0000000745486703
20
126.00000079203159
42
0.4142135623743024
10
6.0000000745403543
20
127.00000079203156
10
5.0000000745465929
20
127.00000079202536
0
ARC
5
113
100
AcDbEntity
8
0
100
AcDbCircle
10
19.000000283152275
20
127.0000016712001
30
0
40
1.0000008791685033
210
0
220
0
230
1
100
AcDbArc
50
180
51
270
0
LINE
5
114
100
AcDbEntity
8
0
100
AcDbLine
10
17.999999403983772
20
127.0000016712001
30
0
11
17.999999403983772
21
130.0000016712001
31
0
0
LINE
5
115
100
AcDbEntity
8
0
100
AcDbLine
10
6.0000000745403543
20
127.00000079203156
30
0
11
6.0000000745398356
21
130.00000079203156
31
0
0
ARC
5
116
100
AcDbEntity
8
0
100
AcDbCircle
10
18.999999575335909
20
130.0000016712001
30
0
40
1.0000001713521378
210
0
220
-0
230
1
100
AcDbArc
50
90
51
180
0
ARC
5
117
100
AcDbEntity
8
0
100
AcDbCircle
10
5.000003404002503
20
130.00000079203156
30
0
40
0.99999667053733199
210
-0
220
0
230
1
100
AcDbArc
50
0
51
90
0
LINE
5
118
100
AcDbEntity
8
0
100
AcDbLine
10
5.000003404002503
20
130.9999974625689
30
0
11
3.0000034040025012
21
130.9999974625627
31
0
0
LINE
5
119
100
AcDbEntity
8
0
100
AcDbLine
10
18.999999575335909
20
131.00000184255225
30
0
11
20.999999575335909
21
131.00000184255225
31
0
0
LINE
5
120
100
AcDbEntity
8
0
100
AcDbLine
10
3.0000034040025012
20
130.9999974625627
30
0
11
3.0000034040024985
21
170.99999746256273
31
0
0
LINE
5
121
100
AcDbEntity
8
0
100
AcDbLine
10
20.999999575335909
20
131.00000184255225
30
0
11
20.999999575335909
21
171.00000184255222
31
0
0
ARC
5
122
100
AcDbEntity
8
0
100
AcDbCircle
10
19.000000283134096
20
171.00000184255222
30
0
40
1.999999292201815
210
-0
220
0
230
1
100
AcDbArc
50
0
51
89.99989928063313
0
LWPOLYLINE
5
123
100
AcDbEntity
8
0
100
AcDbPolyline
90
3
70
1
43
0.0
10
5.0000034040024799
20
172.9999974625627
42
0.41421356237309859
10
3.0000034040024985
20
170.99999746256273
10
5.0000034040024559
20
170.99999746256273
0
LINE
5
124
100
AcDbEntity
8
0
100
AcDbLine
10
5.0000034040024799
20
172.9999974625627
30
0
11
19.000003798901997
21
173.00000113475096
31
0
0
ENDSEC
0
SECTION
2
OBJECTS
0
DICTIONARY
5
C
100
AcDbDictionary
3
ACAD_GROUP
350
D
3
ACAD_MLINESTYLE
350
17
0
DICTIONARY
5
D
100
AcDbDictionary
0
DICTIONARY
5
1A
330
C
100
AcDbDictionary
0
DICTIONARY
5
17
100
AcDbDictionary
0
ENDSEC
0
EOF
